<svg preserveAspectRatio="none" width="100%" height="100%" overflow="visible" style="display: block;" viewBox="0 0 1032 1120.04" fill="none" xmlns="http://www.w3.org/2000/svg">
<path id="_x33_4" opacity="0.5" d="M1032 488.813L1023.44 436.714L519.057 558.803L978.298 302.917L953.752 257.102L518.492 557.739L868.825 148.037L831.205 113.98L517.646 556.978L716.795 42.8247L670.617 24.7321L516.564 556.572L540.547 0H491.453L515.436 556.572L361.336 24.7321L315.206 42.8247L514.354 556.978L200.794 113.98L163.175 148.037L513.508 557.739L78.2959 257.102L53.7022 302.917L512.943 558.803L8.55878 436.714L0 488.813L512.709 560.019L0 631.225L8.55878 683.324L512.943 561.235L53.7022 817.121L78.2959 862.936L513.508 562.299L163.175 972.001L200.794 1006.01L514.354 563.06L315.206 1077.21L361.336 1095.31L515.436 563.466L491.453 1120.04H540.547L516.564 563.466L670.617 1095.31L716.795 1077.21L517.646 563.06L831.205 1006.01L868.825 972.001L518.492 562.299L953.752 862.936L978.298 817.121L519.057 561.235L1023.44 683.324L1032 631.225L519.292 560.019L1032 488.813Z" fill="url(#paint0_radial_0_164)" fill-opacity="0.12"/>
<defs>
<radialGradient id="paint0_radial_0_164" cx="0" cy="0" r="1" gradientUnits="userSpaceOnUse" gradientTransform="translate(516 560.019) rotate(90) scale(560.019 516)">
<stop stop-color="#F0A929" stop-opacity="0.71"/>
<stop offset="1" stop-color="#E0BD7E" stop-opacity="0"/>
</radialGradient>
</defs>
</svg>
