<svg preserveAspectRatio="none" width="100%" height="100%" overflow="visible" style="display: block;" viewBox="0 0 784.833 851.786" fill="none" xmlns="http://www.w3.org/2000/svg">
<path id="_x33_4" opacity="0.5" d="M784.833 371.741L778.325 332.12L394.741 424.968L743.993 230.368L725.326 195.525L394.312 424.159L660.739 112.582L632.13 86.6817L393.668 423.581L545.121 32.5681L510.002 18.8087L392.846 423.272L411.084 0H373.749L391.987 423.272L274.795 18.8087L239.713 32.5681L391.165 423.581L152.704 86.6817L124.094 112.582L390.521 424.159L59.5439 195.525L40.8404 230.368L390.092 424.968L6.50893 332.12L0 371.741L389.913 425.893L0 480.045L6.50893 519.666L390.092 426.818L40.8404 621.418L59.5439 656.261L390.521 427.627L124.094 739.204L152.704 765.066L391.165 428.205L239.713 819.218L274.795 832.977L391.987 428.514L373.749 851.786H411.084L392.846 428.514L510.002 832.977L545.121 819.218L393.668 428.205L632.13 765.066L660.739 739.204L394.312 427.627L725.326 656.261L743.993 621.418L394.741 426.818L778.325 519.666L784.833 480.045L394.92 425.893L784.833 371.741Z" fill="url(#paint0_radial_0_157)"/>
<defs>
<radialGradient id="paint0_radial_0_157" cx="0" cy="0" r="1" gradientUnits="userSpaceOnUse" gradientTransform="translate(392.417 425.893) rotate(90) scale(425.893 392.417)">
<stop/>
<stop offset="1"/>
</radialGradient>
</defs>
</svg>
