<svg width="1920" height="1151" viewBox="0 0 1920 1151" fill="none" xmlns="http://www.w3.org/2000/svg">
<g opacity="0.69">
<path d="M205.395 -113L-285 1289.1" stroke="#343333" stroke-width="0.86"/>
<path d="M230.707 -113L-259.704 1289.1" stroke="#343333" stroke-width="0.86"/>
<path d="M256.006 -113L-234.389 1289.1" stroke="#343333" stroke-width="0.86"/>
<path d="M281.317 -113L-209.094 1289.1" stroke="#343333" stroke-width="0.86"/>
<path d="M306.632 -113L-183.779 1289.1" stroke="#343333" stroke-width="0.86"/>
<path d="M331.931 -113L-158.464 1289.1" stroke="#343333" stroke-width="0.86"/>
<path d="M357.243 -113L-133.168 1289.1" stroke="#343333" stroke-width="0.86"/>
<path d="M382.522 -113L-107.873 1289.1" stroke="#343333" stroke-width="0.86"/>
<path d="M407.831 -113C407.831 -113 14.2756 1012.2 -67.7132 1246.63C-69.6196 1252.09 -71.3657 1257.06 -72.9677 1261.57C-75.7231 1270.36 -80.529 1281.86 -83.3805 1289.79" stroke="#343333" stroke-width="0.86"/>
<path d="M433.163 -113C433.163 -113 57.6937 960.481 -36.1817 1228.84C-38.4245 1235.22 -40.491 1241.17 -42.7178 1246.89C-50.0868 1261.71 -56.4947 1281.83 -64.4725 1295.07" stroke="#343333" stroke-width="0.86"/>
<path d="M458.459 -113C458.459 -113 117.896 860.693 4.3806 1185.23L-3.69332 1208.33C-14.843 1244.47 -30.8627 1273.21 -49.0131 1302.95" stroke="#343333" stroke-width="0.86"/>
<path d="M483.766 -113C483.766 -113 160.024 812.594 38.6109 1159.71C35.5031 1168.62 32.5234 1177.13 29.5278 1185.37C13.9886 1233.01 -10.0409 1273.24 -34.4549 1311.34" stroke="#343333" stroke-width="0.86"/>
<path d="M509.048 -113C509.048 -113 201.694 765.76 73.6329 1131.9C70.2688 1141.53 67.0168 1150.81 63.8128 1159.8C41.2091 1224.39 9.16967 1273.24 -22.9338 1321.88" stroke="#343333" stroke-width="0.86"/>
<path d="M534.37 -113C534.37 -113 242.972 720.104 109.431 1101.93L98.9545 1131.87C70.055 1212.87 30.0057 1273.21 -10.8445 1331.62" stroke="#343333" stroke-width="0.86"/>
<path d="M559.685 -113C559.685 -113 260.357 742.774 129.412 1117.19C127.377 1122.36 125.423 1127.42 123.308 1132.53C90.9003 1207.15 49.2491 1270.36 11.5708 1333" stroke="#343333" stroke-width="0.86"/>
<path d="M584.962 -113C584.962 -113 301.397 697.75 165.518 1086.22C163.66 1091.53 161.817 1096.79 159.991 1101.96C154.945 1118.08 148.537 1135.32 140.527 1149.69C106.886 1215.77 63.6326 1258.87 35.7102 1332.34" stroke="#343333" stroke-width="0.86"/>
<path d="M610.277 -113C610.277 -113 334.418 675.683 196.505 1070.01C194.582 1075.5 192.66 1080.9 190.529 1086.39C156.551 1184.14 95.6766 1232.98 61.9071 1330.24" stroke="#343333" stroke-width="0.86"/>
<path d="M635.572 -113C635.572 -113 367.322 653.932 227.615 1053.37C225.644 1059.01 223.706 1064.55 221.767 1070.04C198.203 1132.45 161.357 1172.67 130.92 1230.14C118.104 1258.87 98.8804 1278.98 99.7935 1320.04" stroke="#343333" stroke-width="0.86"/>
<path d="M660.889 -113C660.889 -113 400.152 632.469 258.907 1036.28C256.888 1042.05 254.902 1047.74 252.867 1053.4C247.869 1063.46 244.665 1074.95 239.859 1086.45C211.024 1169.77 122.915 1204.25 136.26 1311.19" stroke="#343333" stroke-width="0.86"/>
<path d="M686.195 -113C686.195 -113 432.844 611.322 290.349 1018.75C288.282 1024.67 286.248 1030.5 284.069 1036.36C252.67 1115.18 207.815 1166.9 167.766 1232.98C154.95 1253.09 153.348 1287.57 167.478 1306.16" stroke="#343333" stroke-width="0.86"/>
<path d="M711.504 -113C711.504 -113 465.457 590.491 321.921 1000.85L315.657 1018.75C291.131 1092.19 252.684 1132.42 214.236 1184.14C191.809 1212.87 180.595 1261.71 199.162 1300.56" stroke="#343333" stroke-width="0.86"/>
<path d="M736.813 -113C736.813 -113 490.766 590.491 347.23 1000.85C345.115 1006.88 343.001 1012.86 340.614 1018.92C308.767 1097.94 255.902 1138.16 220.658 1218.62C207.842 1244.47 228.668 1267.46 231.135 1296.02" stroke="#343333" stroke-width="0.86"/>
<path d="M762.115 -113C762.115 -113 523.245 569.947 378.924 982.548C376.777 988.696 374.631 994.817 372.468 1000.85C348.791 1063.46 311.946 1100.81 278.304 1152.53C267.09 1169.77 252.673 1181.26 247.867 1207.12C241.459 1241.6 263.886 1261.71 263.79 1292.37" stroke="#343333" stroke-width="0.86"/>
<path d="M787.415 -113L410.744 963.9C408.549 970.164 406.37 976.399 404.096 982.605C372.809 1069.21 316.74 1109.43 278.293 1189.88C276.691 1195.63 275.089 1207.12 276.691 1212.87C283.099 1238.73 299.119 1258.84 292.599 1291.22" stroke="#343333" stroke-width="0.86"/>
<path d="M812.713 -113L442.69 944.908L436.042 963.9C411.259 1040.47 368.006 1083.57 327.957 1135.29C297.52 1175.52 315.141 1218.62 324.753 1264.59C326.355 1273.21 319.947 1281.83 320.764 1289.79" stroke="#343333" stroke-width="0.86"/>
<path d="M838.024 -113L468.001 944.908C465.774 951.287 463.548 957.637 461.225 963.929C430.483 1049.09 376.016 1083.57 339.171 1161.15C337.569 1166.9 335.967 1178.39 337.569 1187.01C350.384 1218.62 359.996 1255.97 347.373 1289.18" stroke="#343333" stroke-width="0.86"/>
<path d="M863.339 -113L500.076 925.6L493.316 944.908C464.144 1028.98 409.677 1063.46 372.832 1141.04C369.628 1149.66 368.026 1161.15 369.628 1169.77C382.444 1210 388.852 1253.09 372.928 1289.1" stroke="#343333" stroke-width="0.86"/>
<path d="M888.629 -113C888.629 -113 670.665 510.154 525.366 925.6C523.091 932.093 520.849 938.529 518.51 944.937C491.356 1017.49 444.899 1051.97 409.656 1109.43C403.248 1123.8 392.034 1138.16 398.442 1155.4C412.86 1195.63 420.87 1244.47 400.701 1282L398.218 1289.1" stroke="#343333" stroke-width="0.86"/>
<path d="M913.924 -113L550.661 925.6C548.387 932.093 546.064 938.558 543.42 945.052C512.182 1020.39 460.919 1046.25 427.278 1118.08C424.074 1129.57 424.074 1143.94 427.278 1152.56C443.297 1184.16 449.705 1227.26 433.125 1261.54C430.049 1270.45 427.63 1277.34 426.012 1282L423.529 1289.1" stroke="#343333" stroke-width="0.86"/>
<path d="M939.239 -113C939.239 -113 728.035 490.846 582.833 905.975L575.976 925.6C547.445 1006.02 494.58 1034.75 457.735 1100.84C454.531 1106.59 451.327 1115.21 452.929 1123.83C460.939 1164.05 483.367 1201.4 463.694 1246.63L458.488 1261.51L448.844 1289.1" stroke="#343333" stroke-width="0.86"/>
<path d="M964.535 -113C964.535 -113 753.331 490.846 608.128 905.975C605.822 912.555 603.531 919.106 601.24 925.6C573.061 994.5 526.604 1026.11 489.759 1080.7C484.953 1092.19 475.341 1103.68 481.749 1120.92C496.167 1161.15 508.982 1204.25 488.99 1246.6L483.783 1261.48L474.14 1289.07" stroke="#343333" stroke-width="0.86"/>
<path d="M989.84 -113C989.84 -113 785.284 471.825 640.402 886.064L633.434 905.975C605.095 985.91 553.832 1017.52 513.783 1077.85C497.763 1103.71 513.783 1129.57 523.394 1152.56C533.006 1178.42 528.2 1207.15 520.447 1228.9C518.268 1235.28 516.202 1241.2 514.295 1246.66L499.445 1289.13" stroke="#343333" stroke-width="0.86"/>
<path d="M1015.16 -113C1015.16 -113 810.609 471.825 665.727 886.064C663.388 892.758 661.065 899.396 658.727 906.004C653.184 925.571 643.572 937.064 635.562 954.304C605.125 1014.64 542.648 1017.52 537.842 1103.71C536.24 1132.45 566.677 1166.93 552.34 1208.5C550.385 1215.66 548.062 1222.47 545.836 1228.87L524.77 1289.13" stroke="#343333" stroke-width="0.86"/>
<path d="M1040.46 -113C1040.46 -113 842.453 453.091 698.068 865.893L691.019 886.064C665.98 960.05 621.125 994.529 579.474 1046.25C569.862 1060.61 555.444 1077.85 563.454 1100.84C576.27 1132.45 593.892 1169.8 578.224 1208.36C575.741 1215.63 573.354 1222.47 571.112 1228.87L550.046 1289.13" stroke="#343333" stroke-width="0.86"/>
<path d="M1065.76 -113C1065.76 -113 867.752 453.091 723.367 865.893L716.318 886.064C688.412 971.543 630.741 997.403 592.294 1063.49C589.09 1069.23 587.488 1077.85 589.09 1086.47C601.905 1123.83 624.333 1164.05 603.491 1208.39C601.056 1215.63 598.654 1222.49 596.427 1228.87L575.361 1289.13" stroke="#343333" stroke-width="0.86"/>
<path d="M1091.05 -113C1091.05 -113 893.048 453.091 748.662 865.893L741.614 886.064C736.455 905.458 726.844 919.824 718.834 934.191C688.396 991.656 622.716 1003.15 621.114 1077.85C621.114 1115.21 653.153 1164.05 628.899 1208.36L621.722 1228.87L600.656 1289.13" stroke="#343333" stroke-width="0.86"/>
<path d="M1116.36 -113C1116.36 -113 918.359 453.091 773.974 865.893L766.925 886.064C739.66 965.797 683.591 985.91 646.745 1051.99C645.143 1057.74 643.542 1063.49 643.542 1069.23C653.153 1106.59 680.387 1138.19 662.156 1185.31C659.433 1193.39 656.742 1201.09 654.195 1208.36L625.952 1289.13" stroke="#343333" stroke-width="0.86"/>
<path d="M1141.66 -113C1141.66 -113 943.659 453.091 799.273 865.893L792.224 886.064C765.295 960.05 712.43 980.163 677.187 1040.5C673.983 1046.25 670.779 1054.87 672.381 1063.49C683.595 1100.84 710.828 1143.94 687.52 1185.26C684.748 1193.36 682.057 1201.09 679.51 1208.36L651.267 1289.13" stroke="#343333" stroke-width="0.86"/>
<path d="M1166.97 -113C1166.97 -113 968.97 453.091 824.585 865.893L817.536 886.064C792.529 960.05 736.46 974.416 702.819 1037.63C698.013 1046.25 698.013 1057.74 701.217 1069.23C714.033 1095.09 728.45 1126.7 720.585 1159.86C718.566 1168.62 715.731 1177.13 712.895 1185.26C690.195 1250.16 676.562 1289.13 676.562 1289.13" stroke="#343333" stroke-width="0.86"/>
<path d="M1192.27 -113C1192.27 -113 994.266 453.091 849.88 865.893L842.831 886.064C818.161 954.304 771.704 971.543 734.859 1020.39C730.053 1029.01 722.043 1043.37 726.849 1057.74C734.859 1089.35 755.684 1118.08 746.361 1159.71C743.878 1168.62 741.026 1177.13 738.191 1185.26C715.491 1250.16 701.858 1289.13 701.858 1289.13" stroke="#343333" stroke-width="0.86"/>
<path d="M1217.58 -113C1217.58 -113 1019.58 453.091 875.195 865.893L868.146 886.064C847 948.557 805.349 968.67 770.106 1008.9C760.494 1020.39 742.872 1037.63 752.484 1063.49C763.698 1092.22 781.32 1120.95 771.66 1159.71C769.177 1168.62 766.341 1177.13 763.506 1185.26C740.806 1250.16 727.173 1289.13 727.173 1289.13" stroke="#343333" stroke-width="0.86"/>
<path d="M1242.88 -113C1242.88 -113 1044.88 453.091 900.491 865.893L893.442 886.064C869.412 954.304 822.955 971.543 784.508 1017.52C779.702 1026.14 774.896 1034.76 776.498 1046.25C781.304 1086.47 806.936 1115.21 796.891 1159.71C794.488 1168.62 791.637 1177.13 788.801 1185.26C766.101 1250.16 752.469 1289.13 752.469 1289.13" stroke="#343333" stroke-width="0.86"/>
<path d="M1268.2 -113C1268.2 -113 1070.19 453.091 925.809 865.893L918.761 886.064C893.466 960.05 842.203 974.416 803.755 1026.14C800.551 1031.88 798.949 1037.63 798.949 1043.37C802.153 1083.6 834.193 1112.33 821.874 1159.71C819.807 1168.62 816.971 1177.13 814.136 1185.26C791.436 1250.16 777.803 1289.13 777.803 1289.13" stroke="#343333" stroke-width="0.86"/>
<path d="M1293.49 -113C1293.49 -113 1088.93 471.825 944.049 886.063C941.71 892.758 939.355 899.395 936.664 905.918C907.861 968.641 863.005 977.261 827.762 1026.11C822.956 1031.85 821.354 1043.35 822.956 1051.97C830.966 1086.44 859.801 1115.18 847.146 1159.68C845.047 1168.59 842.228 1177.1 839.392 1185.23C816.692 1250.13 803.06 1289.1 803.06 1289.1" stroke="#343333" stroke-width="0.86"/>
<path d="M1318.81 -113C1318.81 -113 1114.25 471.825 969.368 886.064C967.029 892.758 964.706 899.395 962.367 905.975C959.131 922.698 949.519 931.317 943.111 942.811C914.276 988.783 851.799 985.91 850.197 1054.87C850.197 1086.47 882.236 1115.21 872.833 1159.71C870.398 1168.62 867.562 1177.13 864.727 1185.26C842.027 1250.16 828.394 1289.13 828.394 1289.13" stroke="#343333" stroke-width="0.86"/>
<path d="M1344.12 -113C1344.12 -113 1132.91 490.846 987.711 905.975C985.404 912.555 983.113 919.106 980.566 925.485C952.724 985.91 906.266 983.036 874.227 1031.88C871.023 1037.63 869.421 1043.37 869.421 1049.12C875.829 1089.35 904.665 1112.33 897.92 1159.57C895.694 1168.59 892.858 1177.13 890.022 1185.26L853.69 1289.13" stroke="#343333" stroke-width="0.86"/>
<path d="M1369.4 -113C1369.4 -113 1158.19 490.846 1012.99 905.975C1010.68 912.555 1008.39 919.106 1006.09 925.6C981.544 994.529 930.28 985.91 898.241 1037.63C896.639 1043.37 895.037 1049.12 895.037 1054.87C903.047 1097.97 933.484 1135.32 915.302 1185.26L907.228 1208.36L878.985 1289.13" stroke="#343333" stroke-width="0.86"/>
<path d="M1394.72 -113C1394.72 -113 1176.75 510.154 1031.45 925.6C1029.18 932.093 1026.85 938.501 1024.04 944.793C1016.81 960.05 1010.4 968.67 1000.79 980.163C975.159 1008.9 923.896 1006.02 923.896 1060.61C923.896 1100.84 954.334 1138.19 940.412 1185.08C937.801 1193.36 935.11 1201.06 932.563 1208.36C914.749 1259.3 904.32 1289.13 904.32 1289.13" stroke="#343333" stroke-width="0.86"/>
<path d="M1420.03 -113L1056.76 925.6C1054.49 932.093 1052.23 938.529 1049.78 944.879C1024.82 1003.15 984.771 1006.02 951.13 1043.37C947.926 1046.25 946.324 1054.87 946.324 1060.61C951.13 1112.33 981.567 1158.31 957.858 1208.36L950.682 1228.87L929.616 1289.13" stroke="#343333" stroke-width="0.86"/>
<path d="M1445.33 -113L1082.06 925.6C1079.79 932.093 1077.55 938.529 1075.24 944.908C1052.06 1003.15 1010.41 1014.64 976.766 1046.25C971.96 1051.99 968.756 1060.61 968.756 1069.23C975.164 1115.21 1000.8 1158.31 983.173 1208.36C980.626 1215.63 978.239 1222.49 975.997 1228.87L954.931 1289.13" stroke="#343333" stroke-width="0.86"/>
<path d="M1470.64 -113L1107.38 925.6C1105.1 932.093 1102.86 938.529 1100.62 944.908C1076.09 1011.74 1028.03 1014.61 992.789 1060.59C991.187 1063.46 991.187 1072.08 991.187 1077.83C997.595 1123.8 1023.23 1158.28 1008.1 1208.21C1005.94 1215.6 1003.54 1222.47 1001.31 1228.84L980.246 1289.1" stroke="#343333" stroke-width="0.86"/>
<path d="M1495.94 -113C1495.94 -113 1277.97 510.154 1132.67 925.6L1125.91 944.908C1101.71 1008.87 1056.85 1020.36 1021.61 1057.71C1016.8 1063.46 1012 1069.21 1012 1080.7C1016.8 1126.67 1044.04 1158.28 1033.03 1208.13C1031.17 1215.57 1028.83 1222.44 1026.61 1228.84L1005.54 1289.1" stroke="#343333" stroke-width="0.86"/>
<path d="M1521.23 -113C1521.23 -113 1303.27 510.154 1157.97 925.6L1151.21 944.908C1125.74 1020.36 1072.87 1020.36 1037.63 1074.95C1036.03 1080.7 1034.43 1086.44 1036.03 1092.19C1045.64 1138.16 1071.27 1181.26 1051.9 1228.84L1045.69 1246.63L1030.84 1289.1" stroke="#343333" stroke-width="0.86"/>
<path d="M1546.54 -113C1546.54 -113 1328.58 510.154 1183.28 925.6C1181.01 932.093 1178.76 938.529 1176.46 944.908C1154.57 997.374 1120.93 1026.11 1087.29 1049.09C1074.47 1060.59 1052.05 1072.08 1061.66 1106.56C1074.47 1143.91 1092.1 1187.01 1077.18 1228.84C1074.97 1235.25 1072.89 1241.17 1070.98 1246.63L1056.13 1289.1" stroke="#343333" stroke-width="0.86"/>
<path d="M1571.86 -113C1571.86 -113 1353.9 510.154 1208.6 925.6C1206.32 932.093 1204.08 938.529 1201.69 944.966C1177.02 1008.9 1136.98 1031.88 1100.13 1066.36C1093.72 1074.98 1085.71 1083.6 1087.31 1097.97C1090.52 1143.94 1122.56 1184.16 1102.44 1228.87C1100.31 1235.25 1098.22 1241.2 1096.32 1246.66L1081.47 1289.13" stroke="#343333" stroke-width="0.86"/>
<path d="M1596.88 -113L1233.62 925.6C1231.35 932.093 1228.97 938.558 1226.12 945.109C1197.83 1006.02 1156.18 1031.88 1119.34 1077.85C1111.33 1089.35 1112.93 1106.59 1117.73 1120.95C1128.95 1155.43 1141.76 1195.66 1127.47 1228.87C1125.33 1235.25 1123.24 1241.2 1121.34 1246.66L1106.49 1289.13" stroke="#343333" stroke-width="0.86"/>
<path d="M1622.18 -113C1622.18 -113 1519.15 181.539 1407.56 500.615C1405.03 507.855 1402.48 515.154 1399.9 522.509C1372.44 603.765 1345.21 684.217 1316.25 761.709L1308.83 782.942C1298.98 811.129 1289.27 838.856 1279.8 865.922C1277.43 872.703 1275.08 879.426 1272.74 886.092C1249.08 974.417 1199.42 1020.39 1151.36 1066.36C1146.55 1072.11 1141.74 1083.6 1141.74 1092.22C1144.95 1141.07 1172.18 1181.29 1152.83 1228.87C1150.6 1235.25 1148.52 1241.2 1146.61 1246.66L1131.76 1289.13" stroke="#343333" stroke-width="0.86"/>
<path d="M1647.49 -113C1647.49 -113 1558.04 142.749 1455.54 435.794C1453.04 442.948 1450.53 450.103 1447.95 457.401C1385.25 623.878 1338.79 802.02 1265.1 962.923C1237.87 1023.26 1164.18 1031.88 1170.58 1109.46C1173.79 1143.94 1194.61 1189.91 1178.05 1228.87C1175.92 1235.25 1173.84 1241.2 1171.93 1246.66L1157.08 1289.13" stroke="#343333" stroke-width="0.86"/>
<path d="M1672.81 -113C1672.81 -113 1595.96 106.69 1503.13 372.151C1500.68 379.133 1498.23 386.144 1495.68 393.327C1446.15 514.694 1406.1 643.991 1364.45 781.908C1324.4 914.078 1265.12 997.403 1193.04 1089.35C1191.43 1092.22 1191.43 1103.71 1194.64 1112.33C1210.66 1146.81 1221.87 1192.78 1203.48 1228.87L1197.26 1246.66L1182.41 1289.13" stroke="#343333" stroke-width="0.86"/>
<path d="M1698.08 -113L1542.92 330.632C1540.53 337.471 1538.11 344.367 1535.61 351.349C1500.58 445.707 1454.12 526.158 1431.69 632.469C1388.44 819.231 1322.76 962.894 1229.85 1083.57C1226.64 1089.32 1226.64 1097.94 1228.24 1106.56C1234.65 1138.16 1247.47 1175.52 1235.45 1208.42C1233.31 1215.63 1230.98 1222.44 1228.76 1228.84L1207.69 1289.1" stroke="#343333" stroke-width="0.86"/>
<path d="M1723.42 -113C1723.42 -113 1661.9 62.8726 1582.45 290.033L1575.4 310.203C1535.86 414.101 1479.79 497.425 1454.16 615.229C1415.71 807.738 1343.62 942.782 1273.14 1103.68C1261.92 1126.67 1273.14 1172.64 1261.24 1208.33C1258.72 1215.6 1256.32 1222.44 1254.09 1228.84L1233.02 1289.1" stroke="#343333" stroke-width="0.86"/>
<path d="M1748.71 -113C1748.71 -113 1694.23 42.7885 1621.56 250.497L1614.71 270.121C1571.09 396.861 1499 483.059 1471.76 623.849C1460.55 684.188 1452.54 741.653 1434.92 796.245C1386.86 942.782 1319.58 1051.97 1286.54 1208.33L1279.37 1228.84L1258.3 1289.1" stroke="#343333" stroke-width="0.86"/>
<path d="M1774.01 -113C1774.01 -113 1722.88 33.1918 1653.62 231.189C1651.4 237.567 1649.14 244.003 1646.81 250.554C1617.55 330.805 1579.1 394.017 1542.25 465.848C1527.84 500.328 1510.21 529.06 1505.41 575.032C1484.58 813.514 1375.65 977.29 1319.93 1185.26L1311.86 1208.36C1294.04 1259.3 1283.62 1289.13 1283.62 1289.13" stroke="#343333" stroke-width="0.86"/>
<path d="M1799.34 -113C1799.34 -113 1754.58 14.9466 1692.12 193.549L1685.6 212.196C1648 322.185 1591.93 394.017 1548.68 497.454C1543.88 508.947 1539.07 523.314 1540.67 537.68C1548.68 618.131 1521.45 678.47 1500.88 740.331L1493.4 761.709L1485.98 782.942L1478.61 804.003C1439.75 914.107 1401.3 1023.29 1363.91 1131.93L1354.19 1159.74L1308.93 1289.13" stroke="#343333" stroke-width="0.86"/>
<path d="M1824.62 -113C1824.62 -113 1782.91 6.26928 1723.81 175.246C1721.7 181.28 1719.57 187.371 1717.34 193.577C1684.84 290.55 1631.97 353.762 1591.92 445.707C1585.51 462.946 1577.5 485.932 1579.11 506.045C1580.71 560.637 1574.3 609.483 1556.42 653.731C1553.94 660.943 1551.39 668.212 1548.86 675.453L1334.25 1289.07" stroke="#343333" stroke-width="0.86"/>
<path d="M1849.93 -113C1849.93 -113 1811.13 -2.09194 1755.38 157.346C1753.32 163.265 1751.24 169.212 1749.07 175.275C1712.07 267.564 1660.8 333.649 1620.75 428.467C1619.15 437.087 1614.35 445.707 1614.35 454.326C1620.75 511.792 1614.35 563.511 1596.98 610.029C1594.51 617.241 1591.95 624.539 1589.4 631.837C1472.11 967.176 1359.52 1289.1 1359.52 1289.1" stroke="#343333" stroke-width="0.86"/>
<path d="M1875.23 -113L1786.8 139.819C1784.78 145.594 1782.75 151.427 1780.57 157.403C1745.71 261.818 1662.41 310.663 1656 434.214C1652.8 488.806 1646.39 543.398 1630.03 588.048L1622.38 609.943C1502.39 953.011 1384.84 1289.1 1384.84 1289.1" stroke="#343333" stroke-width="0.86"/>
<path d="M1900.54 -113L1818.09 122.723C1816.12 128.354 1814.13 134.043 1812.06 139.847C1780.94 221.621 1734.48 273.339 1697.63 345.171C1691.23 359.537 1683.22 376.777 1684.82 394.017C1691.23 448.609 1691.23 500.328 1670.64 544.289L1662.98 566.183C1537.89 923.847 1410.11 1289.13 1410.11 1289.13" stroke="#343333" stroke-width="0.86"/>
<path d="M1925.84 -113L1849.22 106.087C1847.3 111.574 1845.36 117.12 1843.36 122.751C1811.38 210.099 1760.12 261.818 1720.07 339.396C1716.87 348.016 1713.66 356.635 1713.66 365.255C1720.07 414.101 1732.89 460.073 1710.95 500.816C1708.62 507.913 1706.13 515.125 1703.6 522.394C1573.84 893.361 1435.45 1289.07 1435.45 1289.07" stroke="#343333" stroke-width="0.86"/>
<path d="M1951.14 -113C1951.14 -113 1920.49 -25.3654 1874.52 106.087C1872.59 111.575 1870.61 117.149 1868.28 122.924C1840.22 184.268 1801.77 227.367 1771.33 287.706C1760.12 304.945 1740.9 327.932 1747.3 353.791C1758.52 399.763 1760.12 442.862 1744.08 478.95C1741.6 486.134 1739.07 493.374 1736.52 500.644C1604.63 877.731 1460.74 1289.13 1460.74 1289.13" stroke="#343333" stroke-width="0.86"/>
<path d="M1976.45 -113C1976.45 -113 1948.31 -32.5198 1905.49 89.8813C1903.63 95.1969 1901.74 100.599 1899.77 106.115C1896.29 115.31 1893.09 123.93 1889.88 132.549C1856.24 207.254 1792.16 233.114 1782.55 325.058C1777.74 362.411 1795.37 414.13 1776.99 457.315C1774.48 464.498 1771.96 471.71 1769.43 478.922L1486.06 1289.13" stroke="#343333" stroke-width="0.86"/>
<path d="M2001.75 -113C2001.75 -113 1975.99 -39.3582 1936.29 74.1646L1930.8 89.8813C1928.33 103.817 1921.92 112.436 1917.12 123.93C1883.48 195.761 1821 218.747 1811.39 310.692C1808.18 348.044 1832.21 394.017 1809.82 435.794L1802.29 457.286C1666.52 845.464 1511.35 1289.1 1511.35 1289.1" stroke="#343333" stroke-width="0.86"/>
<path d="M2027.06 -113C2027.06 -113 2001.3 -39.3582 1961.6 74.1646L1956.11 89.8813C1945.95 121.056 1931.53 141.169 1917.12 164.155C1889.88 204.381 1840.22 230.24 1838.62 293.452C1838.62 330.805 1861.05 376.777 1842.45 414.503C1840.11 421.543 1837.61 428.668 1835.11 435.794C1697.62 828.886 1536.65 1289.13 1536.65 1289.13" stroke="#343333" stroke-width="0.86"/>
<path d="M2052.36 -113C2052.36 -113 2026.6 -39.3582 1986.9 74.1646C1985.09 79.3364 1983.23 84.5658 1981.15 89.9388C1957.15 149.76 1920.31 178.493 1888.27 224.465C1877.05 241.705 1859.43 264.691 1865.84 290.55C1875.45 322.156 1888.27 356.635 1874.91 393.327C1872.84 400.223 1870.37 407.291 1867.89 414.388C1728.82 811.962 1561.94 1289.07 1561.94 1289.07" stroke="#343333" stroke-width="0.86"/>
<path d="M2077.67 -113C2077.67 -113 2051.91 -39.3582 2012.21 74.1646C2010.4 79.3365 2008.56 84.5658 2006.33 89.9676C1976.39 158.409 1928.34 184.268 1894.69 250.353C1893.09 256.1 1891.49 264.72 1893.09 270.466C1901.1 310.692 1920.33 353.791 1900.54 393.212C1898.17 400.252 1895.69 407.32 1893.2 414.446C1754.14 812.019 1587.26 1289.13 1587.26 1289.13" stroke="#343333" stroke-width="0.86"/>
<path d="M2102.99 -113C2102.99 -113 2077.23 -39.3582 2037.53 74.1646C2035.72 79.3365 2033.88 84.5658 2031.81 89.8813C2003.63 161.282 1952.37 181.395 1918.73 247.48C1917.13 253.227 1915.52 261.846 1917.13 267.593C1929.94 299.199 1950.77 333.678 1932.94 372.295C1930.85 379.162 1928.4 386.173 1925.94 393.212C1785.46 794.837 1612.57 1289.13 1612.57 1289.13" stroke="#343333" stroke-width="0.86"/>
<path d="M2128.28 -113C2128.28 -113 2102.52 -39.3582 2062.82 74.1646C2061.01 79.3365 2059.17 84.5658 2057.09 89.8813C2051.69 106.69 2043.68 118.183 2035.67 129.676C2006.84 175.648 1950.77 190.015 1950.77 261.846C1950.77 296.326 1974.8 333.678 1958.5 372.151C1956.15 379.133 1953.7 386.144 1951.23 393.212C1810.75 794.837 1637.87 1289.13 1637.87 1289.13" stroke="#343333" stroke-width="0.86"/>
<path d="M2153.58 -113C2153.58 -113 2127.82 -39.3582 2088.12 74.1646C2086.31 79.3365 2084.45 84.5658 2082.19 89.8813C2058.08 149.789 2016.43 167.029 1982.79 213.001C1977.98 221.621 1971.58 230.24 1973.18 238.86C1974.78 284.833 2008.42 325.058 1983.9 372.151L1976.53 393.212C1836.05 794.837 1663.17 1289.13 1663.17 1289.13" stroke="#343333" stroke-width="0.86"/>
<path d="M2178.89 -113C2178.89 -113 2153.13 -39.3582 2113.44 74.1646C2111.63 79.3365 2109.8 84.5658 2107.76 89.8813C2086.94 141.169 2054.9 158.409 2024.46 190.015C2013.25 201.508 2000.43 215.874 1998.83 235.987C1997.23 281.959 2037.28 325.058 2009.21 372.151L2001.84 393.212C1861.37 794.837 1688.48 1289.13 1688.48 1289.13" stroke="#343333" stroke-width="0.86"/>
<path d="M2204.19 -113C2204.19 -113 2178.43 -39.3582 2138.73 74.1646C2136.92 79.3365 2135.05 84.5658 2132.8 89.8813C2107.75 146.916 2066.1 167.029 2030.85 207.254C2026.05 213.001 2021.24 224.494 2021.24 233.114C2022.84 279.086 2061.29 325.058 2034.51 372.151L2027.14 393.212L1713.78 1289.13" stroke="#343333" stroke-width="0.86"/>
</g>
</svg>
