<svg width="286" height="72" viewBox="0 0 286 72" fill="none" xmlns="http://www.w3.org/2000/svg">
<path d="M50.3158 19.1807C46.3713 14.2375 41.2587 11.7483 34.8489 11.7483C26.5138 11.7483 19.9573 14.6837 14.9797 20.6483L16.3591 12.852H10.3015L0 71.5066H6.05174L10.0315 48.9394C13.2422 55.908 20.2918 59.7534 28.263 59.7534C34.3852 59.7534 39.891 57.7397 44.9214 53.7065C49.9518 49.6733 53.1391 43.9904 54.4481 36.6813C55.6338 29.9828 54.2544 24.1297 50.3158 19.1807ZM48.4081 36.2058C47.3926 41.8006 44.9214 46.1039 40.8889 49.2095C37.1981 52.2386 32.5736 53.8979 27.7993 53.9061C22.945 53.9061 18.9124 52.3445 15.7956 49.1508C12.6787 45.9571 11.493 41.6128 12.3265 36.0356L12.5026 34.562C13.4757 29.7777 16.118 25.4953 19.9573 22.48C23.7154 19.3172 28.4757 17.5942 33.3873 17.619C38.5116 17.619 42.5442 19.4507 45.3851 23.1141C48.2144 26.6893 49.224 31.0865 48.4081 36.2117V36.2058Z" fill="white"/>
<path d="M104.616 12.852L102.885 22.574C99.6859 15.5995 92.6363 11.7483 84.6651 11.7483C78.5461 11.7387 72.6177 13.8765 67.9128 17.7893C62.8706 21.8225 59.7538 27.4937 58.48 34.8145C57.3061 41.4954 58.662 47.3485 62.5889 52.2917C66.5157 57.2348 71.6518 59.7182 78.0616 59.7182C86.3967 59.7182 92.9943 56.7828 97.9308 50.8299L96.569 58.6556H102.609L110.674 12.8638L104.616 12.852ZM100.602 35.7479L100.408 36.8399C99.4397 41.6559 96.8298 45.9863 93.0239 49.0915C89.2181 52.1966 84.4523 53.8839 79.5408 53.865C74.4047 53.865 70.3839 52.0334 67.543 48.464C64.702 44.8006 63.6963 40.4034 64.5259 35.2724C65.5355 29.6834 67.9949 25.3802 71.9277 22.2746C75.6683 19.2703 80.3197 17.6285 85.1171 17.6191C89.9714 17.6191 93.9981 19.257 97.1149 22.4742C100.326 25.6737 101.423 30.1707 100.602 35.7655V35.7479Z" fill="white"/>
<path d="M124.758 19.2599L125.867 12.8491H119.827L111.762 58.6409H117.802L122.299 33.1795C124.13 22.6121 131.103 17.9801 139.421 17.9801L140.518 12.1094C134.109 11.6632 128.884 14.0526 124.758 19.2599Z" fill="white"/>
<path d="M182.729 12.8462L180.968 22.5682C177.781 15.5937 170.726 11.7425 162.76 11.7425C156.641 11.7319 150.713 13.8699 146.008 17.7835C140.966 21.8167 137.861 27.4879 136.575 34.8087C135.401 41.4896 136.751 47.3427 140.684 52.2859C144.617 57.229 149.759 59.7124 156.169 59.7124C164.492 59.7124 171.09 56.777 176.038 50.8241L174.664 58.6498H180.704L188.769 12.858L182.729 12.8462ZM178.697 35.7421L178.503 36.8341C177.535 41.6501 174.925 45.9805 171.119 49.0857C167.313 52.1908 162.548 53.8781 157.636 53.8592C152.512 53.8592 148.479 52.0276 145.638 48.4582C142.791 44.7948 141.799 40.3918 142.615 35.2666C143.631 29.6777 146.102 25.3744 150.035 22.2688C153.768 19.2472 158.421 17.5904 163.224 17.5722C168.078 17.5722 172.093 19.2101 175.21 22.4273C178.439 25.6679 179.513 30.1649 178.697 35.7597V35.7421Z" fill="white"/>
<path d="M200.206 0L194.711 31.2617L189.956 58.6487H195.997L200.746 31.2617L206.265 0H200.206Z" fill="white"/>
<path d="M213.235 12.6909L206.777 49.5768L202.967 71.504H209.019L212.835 49.5768L219.293 12.6909H213.235Z" fill="white"/>
<path d="M264.202 18.9106C260.616 14.1377 255.333 11.7483 248.459 11.7483C241.929 11.7599 235.615 14.0877 230.64 18.3177C225.665 22.5478 222.351 28.4057 221.288 34.8497C220.114 41.8946 221.382 47.8475 225.139 52.6028C228.895 57.3581 234.378 59.7534 241.427 59.7534C250.132 59.7534 258.825 55.8141 263.228 49.1332L258.456 46.0158C254.711 51.2349 249.299 53.8885 242.249 53.8885C232.64 53.8885 226.6 48.0177 226.958 38.7831H266.973C267.3 37.8588 267.547 36.9082 267.712 35.9416C269.068 29.3605 267.877 23.6659 264.202 18.9106ZM261.919 32.9182H227.874C230.68 23.6659 238.481 17.619 248.09 17.619C256.971 17.619 262.658 22.9027 261.919 32.9182Z" fill="white"/>
<path d="M279.989 0L274.494 31.2617L269.697 58.6487H275.75L280.505 31.2617L286 0H279.989Z" fill="white"/>
</svg>
